{"title":"Naruto Shippuuden - 351 [720p] [ENG-SUBBED] [GWC].mkv","uid":9644134,"size":65139064,"categoryP":"video","categoryS":"tv_shows","magnet":"?xt=urn:btih:1f5e954bc1609f19fc1419a1d4ffa0e251afa115&amp;dn=Naruto+Shippuuden+-+351+%5B720p%5D+%5BENG-SUBBED%5D+%5BGWC%5D.mkv&amp;tr=udp%3A%2F%2Ftracker.openbittorrent.com%3A80&amp;tr=udp%3A%2F%2Fopen.demonii.com%3A1337&amp;tr=udp%3A%2F%2Ftracker.coppersurfer.tk%3A6969&amp;tr=udp%3A%2F%2Fexodus.desync.com%3A6969","seeders":1,"leechers":0,"uploader":"canc232","files":1,"time":1392965805,"description":"Naruto Shippuuden - 351 [720p] [ENG-SUBBED] [GWC] \nNaruto Shippuden Ep:351 - Hashirama's Cells \n\n\nTHUMBNAIL IMAGE : &lt;a href=&quot;\nhttp://img829.imageshack.us/img829/606/wyfo.jpg&quot; rel=&quot;nofollow&quot; target=&quot;_NEW&quot;&gt;\nhttp://img829.imageshack.us/img829/606/wyfo.jpg&lt;/a&gt;\n\n\nGeneral  \nFormat : Matroska \nFormat version : Version 4 / Version 2 \nFile size : 62.1 MiB \nDuration : 21mn 43s \nOverall bit rate mode : Variable \nWriting application : mkvmerge v6.7.0 ('Back to the Ground')  \n\nVideo \nFormat : AVC \nFormat profile : &lt;a class=&quot;__cf_email__&quot; href=&quot;/cdn-cgi/l/email-protection&quot; data-cfemail=&quot;135b7a747b535f273d22&quot;&gt;[email&amp;#160;protected]&lt;/a&gt;&lt;script cf-hash='f9e31' type=&quot;text/javascript&quot;&gt;\n/* &lt;![CDATA[ */!function(){try{var t=&quot;currentScript&quot;in document?document.currentScript:function(){for(var t=document.getElementsByTagName(&quot;script&quot;),e=t.length;e--;)if(t[e].getAttribute(&quot;cf-hash&quot;))return t[e]}();if(t&amp;&amp;t.previousSibling){var e,r,n,i,c=t.previousSibling,a=c.getAttribute(&quot;data-cfemail&quot;);if(a){for(e=&quot;&quot;,r=parseInt(a.substr(0,2),16),n=2;a.length-n;n+=2)i=parseInt(a.substr(n,2),16)^r,e+=String.fromCharCode(i);e=document.createTextNode(e),c.parentNode.replaceChild(e,c)}}}catch(u){}}();/* ]]&gt; */&lt;/script&gt; \nFormat settings, CABAC : Yes \nFormat settings, ReFrames : 10 frames \nDuration : 21mn 43s \nBit rate : 336 Kbps \nWidth : 1 280 pixels \nHeight : 720 pixels \nDisplay aspect ratio : 16:9 \nFrame rate mode : Constant \nFrame rate : 23.976 fps \nStream size : 52.2 MiB (84%) \nTitle : Naruto Shippuuden - 351 [720p] [ENG-SUBBED] [GWC] \nWriting library : x264 core \nLanguage : English \n\nAudio \nFormat : Vorbis \nDuration : 21mn 43s \nBit rate mode : Variable \nChannel(s) : 2 channels \nSampling rate : 44.1 KHz \nStream size : 8.70 MiB (14%) \nWriting library : aoTuV 20110424\n\nText \nFormat : UTF-8 \nTitle : [GWC] \nLanguage : English ","torrent":{"xt":"urn:btih:1f5e954bc1609f19fc1419a1d4ffa0e251afa115","amp;dn":"Naruto+Shippuuden+-+351+%5B720p%5D+%5BENG-SUBBED%5D+%5BGWC%5D.mkv","amp;tr":["udp%3A%2F%2Ftracker.openbittorrent.com%3A80","udp%3A%2F%2Fopen.demonii.com%3A1337","udp%3A%2F%2Ftracker.coppersurfer.tk%3A6969","udp%3A%2F%2Fexodus.desync.com%3A6969"],"infoHash":"1f5e954bc1609f19fc1419a1d4ffa0e251afa115","infoHashBuffer":{"type":"Buffer","data":[31,94,149,75,193,96,159,25,252,20,25,161,212,255,160,226,81,175,161,21]},"announce":[],"urlList":[]}}